<svg width="3779" height="1214" viewBox="0 0 3779 1214" fill="none" xmlns="http://www.w3.org/2000/svg">
<g clip-path="url(#clip0_601_14)">
<path d="M1267.77 535V331.8L1263.77 299.4H1440.97C1458.04 299.4 1471.37 301.667 1480.97 306.2C1490.84 310.733 1498.04 316.733 1502.57 324.2C1507.37 331.4 1510.44 339.133 1511.77 347.4C1513.11 355.667 1513.77 363.533 1513.77 371V394.6C1513.77 400.733 1512.84 407.667 1510.97 415.4C1509.11 422.867 1505.64 430.2 1500.57 437.4C1495.51 444.333 1488.17 450.2 1478.57 455C1468.97 459.533 1456.44 461.8 1440.97 461.8H1400.17C1383.37 461.8 1367.64 461.4 1352.97 460.6C1338.57 459.8 1327.77 459.133 1320.57 458.6V535H1267.77ZM1320.57 423.4H1429.37C1441.37 423.4 1449.64 420.467 1454.17 414.6C1458.71 408.733 1460.97 401.667 1460.97 393.4V368.2C1460.97 359.667 1458.71 352.467 1454.17 346.6C1449.64 340.733 1441.51 337.8 1429.77 337.8H1320.57V423.4ZM1630.43 535C1612.57 535 1599.23 531.4 1590.43 524.2C1581.9 517 1577.63 505.267 1577.63 489V407C1577.63 403 1577.9 398.2 1578.43 392.6C1579.23 386.733 1581.1 381 1584.03 375.4C1587.23 369.8 1592.43 365.133 1599.63 361.4C1607.1 357.667 1617.37 355.8 1630.43 355.8H1740.83C1754.17 355.8 1764.43 357.667 1771.63 361.4C1778.83 365.133 1783.9 369.8 1786.83 375.4C1790.03 381 1791.9 386.733 1792.43 392.6C1793.23 398.2 1793.63 403 1793.63 407V483.8C1793.63 488.6 1793.23 493.933 1792.43 499.8C1791.9 505.667 1790.03 511.267 1786.83 516.6C1783.63 521.933 1778.43 526.333 1771.23 529.8C1764.03 533.267 1753.9 535 1740.83 535H1630.43ZM1645.63 500.6H1725.63C1738.7 500.6 1745.23 495.267 1745.23 484.6V406.2C1745.23 395.533 1738.7 390.2 1725.63 390.2H1645.63C1632.83 390.2 1626.43 395.533 1626.43 406.2V484.6C1626.43 495.267 1632.83 500.6 1645.63 500.6ZM1861.49 535V313.4L1857.49 281.4H1910.29V535H1861.49ZM1995.07 613.4C1982.27 613.4 1970.54 611.933 1959.87 609C1949.21 606.067 1942.01 603.4 1938.27 601L1950.27 565C1954.81 566.867 1961.21 569 1969.47 571.4C1978.01 574.067 1987.61 575.4 1998.27 575.4H2002.67C2014.94 575.4 2025.74 571.667 2035.07 564.2C2044.67 557 2052.01 547.267 2057.07 535H2037.07L1958.67 355.8H2014.67L2060.67 466.2L2071.07 495H2075.07L2085.47 466.2L2132.27 355.8H2186.67L2180.27 380.2C2175.21 390.6 2169.34 402.6 2162.67 416.2C2156.27 429.533 2149.61 443.4 2142.67 457.8C2135.74 472.2 2128.94 486.067 2122.27 499.4C2115.87 512.733 2110.14 524.6 2105.07 535C2097.34 551 2088.81 564.867 2079.47 576.6C2070.41 588.333 2059.87 597.4 2047.87 603.8C2036.14 610.2 2022.14 613.4 2005.87 613.4H1995.07ZM2287.4 535C2269.27 535 2255.93 534.2 2247.4 532.6C2238.87 531 2234.6 529.133 2234.6 527L2250.6 492.2C2256.73 493.267 2271.93 494.333 2296.2 495.4C2320.73 496.2 2354.33 496.6 2397 496.6H2404.6C2416.07 496.6 2424.2 494.6 2429 490.6C2433.8 486.333 2436.2 479.267 2436.2 469.4V461.4C2436.2 452.067 2434.2 445.4 2430.2 441.4C2426.47 437.4 2417.93 435.4 2404.6 435.4H2311.8C2284.87 435.4 2265.27 430.467 2253 420.6C2240.73 410.467 2234.6 394.067 2234.6 371.4V365C2234.6 353.267 2236.73 342.467 2241 332.6C2245.53 322.733 2253.13 314.867 2263.8 309C2274.47 302.867 2289.13 299.8 2307.8 299.8H2416.6C2434.73 299.8 2449.4 300.733 2460.6 302.6C2471.8 304.467 2477.4 306.467 2477.4 308.6L2469.4 342.2C2462.47 341.4 2446.73 340.6 2422.2 339.8C2397.67 338.733 2364.73 338.2 2323.4 338.2L2319 337.8C2306.73 337.8 2298.47 340.333 2294.2 345.4C2289.93 350.2 2287.67 356.333 2287.4 363.8V370.6C2287.4 379.4 2289.8 386.067 2294.6 390.6C2299.67 394.867 2307.93 397 2319.4 397H2408.2C2425.27 397 2439.8 398.733 2451.8 402.2C2463.8 405.667 2473 412.067 2479.4 421.4C2485.8 430.467 2489 443.933 2489 461.8V468.2C2489 488.2 2483.8 504.333 2473.4 516.6C2463.27 528.867 2445.53 535 2420.2 535H2287.4ZM2605.75 535C2592.41 535 2582.15 533.267 2574.95 529.8C2567.75 526.333 2562.55 521.933 2559.35 516.6C2556.41 511.267 2554.55 505.667 2553.75 499.8C2553.21 493.933 2552.95 488.6 2552.95 483.8V407C2552.95 403 2553.21 398.2 2553.75 392.6C2554.55 386.733 2556.41 381 2559.35 375.4C2562.55 369.8 2567.75 365.133 2574.95 361.4C2582.41 357.667 2592.68 355.8 2605.75 355.8H2691.75C2709.35 355.8 2723.08 357.533 2732.95 361C2743.08 364.2 2750.15 369.533 2754.15 377C2758.41 384.467 2760.55 394.467 2760.55 407V466.2H2690.55C2666.55 466.2 2646.95 465.667 2631.75 464.6C2616.81 463.533 2606.81 462.867 2601.75 462.6V484.6C2601.48 495.267 2607.88 500.6 2620.95 500.6H2641.35C2655.75 500.6 2669.75 500.467 2683.35 500.2C2697.21 499.667 2709.88 499.133 2721.35 498.6C2732.81 497.8 2742.01 497.133 2748.95 496.6L2764.95 522.6C2764.95 530.867 2738.68 535 2686.15 535H2605.75ZM2601.75 431.8H2711.75V406.2C2711.75 400.867 2711.08 397.133 2709.75 395C2708.68 392.867 2705.21 391.533 2699.35 391C2693.48 390.467 2683.48 390.2 2669.35 390.2H2620.95C2608.15 390.2 2601.75 395.533 2601.75 406.2V431.8ZM2824.99 535V355.8H2857.79L2873.79 363.8C2884.99 361.667 2898.46 359.8 2914.19 358.2C2929.93 356.6 2947.93 355.8 2968.19 355.8H2988.19C3001.53 355.8 3011.79 357.667 3018.99 361.4C3026.19 365.133 3031.26 369.8 3034.19 375.4C3037.39 381 3039.26 386.733 3039.79 392.6C3040.59 398.2 3040.99 403 3040.99 407V535H2992.19V406.2C2992.19 395.533 2985.79 390.2 2972.99 390.2H2885.79C2880.73 390.2 2877.39 390.733 2875.79 391.8C2874.46 392.6 2873.79 395 2873.79 399V535H2824.99ZM3152.3 535C3134.43 535 3121.77 534.067 3114.3 532.2C3106.83 530.333 3103.1 528.467 3103.1 526.6L3115.1 496.6C3122.83 497.4 3136.97 498.333 3157.5 499.4C3178.3 500.2 3203.9 500.6 3234.3 500.6H3254.3C3260.97 500.6 3265.1 498.867 3266.7 495.4C3268.57 491.667 3269.5 486.733 3269.5 480.6C3269.5 474.467 3268.43 469.533 3266.3 465.8C3264.43 462.067 3260.43 460.2 3254.3 460.2H3155.9C3137.23 460.2 3123.77 456.733 3115.5 449.8C3107.23 442.6 3103.1 431.933 3103.1 417.8V401.8C3103.1 398.067 3103.5 393.667 3104.3 388.6C3105.1 383.533 3107.1 378.467 3110.3 373.4C3113.5 368.333 3118.7 364.2 3125.9 361C3133.1 357.533 3143.1 355.8 3155.9 355.8H3266.3C3282.3 355.8 3293.63 356.733 3300.3 358.6C3306.97 360.467 3310.3 362.333 3310.3 364.2L3306.3 394.2C3298.57 393.4 3284.3 392.6 3263.5 391.8C3242.7 390.733 3217.23 390.2 3187.1 390.2H3167.1C3160.43 390.2 3156.17 392.067 3154.3 395.8C3152.7 399.267 3151.9 403.4 3151.9 408.2C3151.9 413.267 3152.7 417.533 3154.3 421C3156.17 424.2 3160.43 425.8 3167.1 425.8H3265.5C3283.63 425.8 3296.97 429.533 3305.5 437C3314.03 444.467 3318.3 453.933 3318.3 465.4V489C3318.3 493.8 3317.9 498.867 3317.1 504.2C3316.57 509.533 3314.7 514.6 3311.5 519.4C3308.3 523.933 3303.1 527.667 3295.9 530.6C3288.7 533.533 3278.57 535 3265.5 535H3152.3ZM3430.98 535C3417.65 535 3407.38 533.267 3400.18 529.8C3392.98 526.333 3387.78 521.933 3384.58 516.6C3381.65 511.267 3379.78 505.667 3378.98 499.8C3378.45 493.933 3378.18 488.6 3378.18 483.8V407C3378.18 403 3378.45 398.2 3378.98 392.6C3379.78 386.733 3381.65 381 3384.58 375.4C3387.78 369.8 3392.98 365.133 3400.18 361.4C3407.65 357.667 3417.91 355.8 3430.98 355.8H3516.98C3534.58 355.8 3548.31 357.533 3558.18 361C3568.31 364.2 3575.38 369.533 3579.38 377C3583.65 384.467 3585.78 394.467 3585.78 407V466.2H3515.78C3491.78 466.2 3472.18 465.667 3456.98 464.6C3442.05 463.533 3432.05 462.867 3426.98 462.6V484.6C3426.71 495.267 3433.11 500.6 3446.18 500.6H3466.58C3480.98 500.6 3494.98 500.467 3508.58 500.2C3522.45 499.667 3535.11 499.133 3546.58 498.6C3558.05 497.8 3567.25 497.133 3574.18 496.6L3590.18 522.6C3590.18 530.867 3563.91 535 3511.38 535H3430.98ZM3426.98 431.8H3536.98V406.2C3536.98 400.867 3536.31 397.133 3534.98 395C3533.91 392.867 3530.45 391.533 3524.58 391C3518.71 390.467 3508.71 390.2 3494.58 390.2H3446.18C3433.38 390.2 3426.98 395.533 3426.98 406.2V431.8ZM1316.89 919C1298.75 919 1285.42 918.2 1276.89 916.6C1268.35 915 1264.09 913.133 1264.09 911L1280.09 876.2C1286.22 877.267 1301.42 878.333 1325.69 879.4C1350.22 880.2 1383.82 880.6 1426.49 880.6H1434.09C1445.55 880.6 1453.69 878.6 1458.49 874.6C1463.29 870.333 1465.69 863.267 1465.69 853.4V845.4C1465.69 836.067 1463.69 829.4 1459.69 825.4C1455.95 821.4 1447.42 819.4 1434.09 819.4H1341.29C1314.35 819.4 1294.75 814.467 1282.49 804.6C1270.22 794.467 1264.09 778.067 1264.09 755.4V749C1264.09 737.267 1266.22 726.467 1270.49 716.6C1275.02 706.733 1282.62 698.867 1293.29 693C1303.95 686.867 1318.62 683.8 1337.29 683.8H1446.09C1464.22 683.8 1478.89 684.733 1490.09 686.6C1501.29 688.467 1506.89 690.467 1506.89 692.6L1498.89 726.2C1491.95 725.4 1476.22 724.6 1451.69 723.8C1427.15 722.733 1394.22 722.2 1352.89 722.2L1348.49 721.8C1336.22 721.8 1327.95 724.333 1323.69 729.4C1319.42 734.2 1317.15 740.333 1316.89 747.8V754.6C1316.89 763.4 1319.29 770.067 1324.09 774.6C1329.15 778.867 1337.42 781 1348.89 781H1437.69C1454.75 781 1469.29 782.733 1481.29 786.2C1493.29 789.667 1502.49 796.067 1508.89 805.4C1515.29 814.467 1518.49 827.933 1518.49 845.8V852.2C1518.49 872.2 1513.29 888.333 1502.89 900.6C1492.75 912.867 1475.02 919 1449.69 919H1316.89ZM1663.23 919C1645.36 919 1632.03 915.4 1623.23 908.2C1614.7 901 1610.43 889.267 1610.43 873V791C1610.43 787 1610.7 782.2 1611.23 776.6C1612.03 770.733 1613.9 765 1616.83 759.4C1620.03 753.8 1625.23 749.133 1632.43 745.4C1639.9 741.667 1650.16 739.8 1663.23 739.8H1773.63C1786.96 739.8 1797.23 741.667 1804.43 745.4C1811.63 749.133 1816.7 753.8 1819.63 759.4C1822.83 765 1824.7 770.733 1825.23 776.6C1826.03 782.2 1826.43 787 1826.43 791V867.8C1826.43 872.6 1826.03 877.933 1825.23 883.8C1824.7 889.667 1822.83 895.267 1819.63 900.6C1816.43 905.933 1811.23 910.333 1804.03 913.8C1796.83 917.267 1786.7 919 1773.63 919H1663.23ZM1678.43 884.6H1758.43C1771.5 884.6 1778.03 879.267 1778.03 868.6V790.2C1778.03 779.533 1771.5 774.2 1758.43 774.2H1678.43C1665.63 774.2 1659.23 779.533 1659.23 790.2V868.6C1659.23 879.267 1665.63 884.6 1678.43 884.6ZM1922.29 919V697.4L1918.29 665.4H1971.09V919H1922.29ZM2119.87 919C2106.8 919 2096.54 917.267 2089.07 913.8C2081.87 910.333 2076.67 905.933 2073.47 900.6C2070.54 895.267 2068.67 889.667 2067.87 883.8C2067.34 877.933 2067.07 872.6 2067.07 867.8V739.8H2115.87V868.6C2115.6 874.467 2117.47 878.6 2121.47 881C2125.74 883.4 2130.27 884.6 2135.07 884.6H2214.27C2220.14 884.6 2223.6 884.067 2224.67 883C2225.74 881.933 2226.27 878.467 2226.27 872.6V739.8H2275.07V919H2242.27L2227.07 911C2216.4 913.133 2203.74 915 2189.07 916.6C2174.67 918.2 2158.4 919 2140.27 919H2119.87ZM2440.53 919C2420.26 919 2406.4 914.733 2398.93 906.2C2391.46 897.667 2387.73 884.867 2387.73 867.8V774.2H2354.93V739.8H2371.73C2376.8 739.8 2380.4 739 2382.53 737.4C2384.93 735.8 2386.66 732.6 2387.73 727.8L2395.73 685H2436.53V739.8H2519.73V774.2H2436.53V868.2C2436.53 874.867 2438.13 879.267 2441.33 881.4C2444.53 883.533 2449.33 884.6 2455.73 884.6H2512.13L2516.13 915C2510.53 915.8 2502 916.733 2490.53 917.8C2479.06 918.6 2466.53 919 2452.93 919H2440.53ZM2628.19 714.6C2618.32 714.6 2611.12 712.6 2606.59 708.6C2602.06 704.6 2599.79 697.933 2599.79 688.6C2599.79 679 2601.92 672.333 2606.19 668.6C2610.72 664.6 2618.06 662.6 2628.19 662.6C2638.32 662.6 2645.66 664.6 2650.19 668.6C2654.72 672.333 2656.99 679 2656.99 688.6C2656.99 697.667 2654.72 704.333 2650.19 708.6C2645.66 712.6 2638.32 714.6 2628.19 714.6ZM2603.79 919V739.8H2652.59V919H2603.79ZM2801.67 919C2783.8 919 2770.47 915.4 2761.67 908.2C2753.13 901 2748.87 889.267 2748.87 873V791C2748.87 787 2749.13 782.2 2749.67 776.6C2750.47 770.733 2752.33 765 2755.27 759.4C2758.47 753.8 2763.67 749.133 2770.87 745.4C2778.33 741.667 2788.6 739.8 2801.67 739.8H2912.07C2925.4 739.8 2935.67 741.667 2942.87 745.4C2950.07 749.133 2955.13 753.8 2958.07 759.4C2961.27 765 2963.13 770.733 2963.67 776.6C2964.47 782.2 2964.87 787 2964.87 791V867.8C2964.87 872.6 2964.47 877.933 2963.67 883.8C2963.13 889.667 2961.27 895.267 2958.07 900.6C2954.87 905.933 2949.67 910.333 2942.47 913.8C2935.27 917.267 2925.13 919 2912.07 919H2801.67ZM2816.87 884.6H2896.87C2909.93 884.6 2916.47 879.267 2916.47 868.6V790.2C2916.47 779.533 2909.93 774.2 2896.87 774.2H2816.87C2804.07 774.2 2797.67 779.533 2797.67 790.2V868.6C2797.67 879.267 2804.07 884.6 2816.87 884.6ZM3056.73 919V739.8H3089.53L3105.53 747.8C3116.73 745.667 3130.19 743.8 3145.93 742.2C3161.66 740.6 3179.66 739.8 3199.93 739.8H3219.93C3233.26 739.8 3243.53 741.667 3250.73 745.4C3257.93 749.133 3262.99 753.8 3265.93 759.4C3269.13 765 3270.99 770.733 3271.53 776.6C3272.33 782.2 3272.73 787 3272.73 791V919H3223.93V790.2C3223.93 779.533 3217.53 774.2 3204.73 774.2H3117.53C3112.46 774.2 3109.13 774.733 3107.53 775.8C3106.19 776.6 3105.53 779 3105.53 783V919H3056.73ZM3412.04 919C3394.17 919 3381.5 918.067 3374.04 916.2C3366.57 914.333 3362.84 912.467 3362.84 910.6L3374.84 880.6C3382.57 881.4 3396.7 882.333 3417.24 883.4C3438.04 884.2 3463.64 884.6 3494.04 884.6H3514.04C3520.7 884.6 3524.84 882.867 3526.44 879.4C3528.3 875.667 3529.24 870.733 3529.24 864.6C3529.24 858.467 3528.17 853.533 3526.04 849.8C3524.17 846.067 3520.17 844.2 3514.04 844.2H3415.64C3396.97 844.2 3383.5 840.733 3375.24 833.8C3366.97 826.6 3362.84 815.933 3362.84 801.8V785.8C3362.84 782.067 3363.24 777.667 3364.04 772.6C3364.84 767.533 3366.84 762.467 3370.04 757.4C3373.24 752.333 3378.44 748.2 3385.64 745C3392.84 741.533 3402.84 739.8 3415.64 739.8H3526.04C3542.04 739.8 3553.37 740.733 3560.04 742.6C3566.7 744.467 3570.04 746.333 3570.04 748.2L3566.04 778.2C3558.3 777.4 3544.04 776.6 3523.24 775.8C3502.44 774.733 3476.97 774.2 3446.84 774.2H3426.84C3420.17 774.2 3415.9 776.067 3414.04 779.8C3412.44 783.267 3411.64 787.4 3411.64 792.2C3411.64 797.267 3412.44 801.533 3414.04 805C3415.9 808.2 3420.17 809.8 3426.84 809.8H3525.24C3543.37 809.8 3556.7 813.533 3565.24 821C3573.77 828.467 3578.04 837.933 3578.04 849.4V873C3578.04 877.8 3577.64 882.867 3576.84 888.2C3576.3 893.533 3574.44 898.6 3571.24 903.4C3568.04 907.933 3562.84 911.667 3555.64 914.6C3548.44 917.533 3538.3 919 3525.24 919H3412.04Z" fill="black"/>
<path d="M3601.66 706.963V697.455H3646.46V706.963H3629.76V752H3618.36V706.963H3601.66ZM3653.84 697.455H3668.06L3683.08 734.102H3683.72L3698.74 697.455H3712.96V752H3701.78V716.498H3701.33L3687.21 751.734H3679.59L3665.48 716.364H3665.02V752H3653.84V697.455Z" fill="black"/>
<path d="M559.118 60.3884C590.111 44.4541 626.889 44.4541 657.882 60.3884L1119.29 297.613C1155.29 316.117 1177.91 353.191 1177.91 393.662V847.338C1177.91 887.809 1155.29 924.883 1119.29 943.387L657.882 1180.61C626.889 1196.55 590.111 1196.55 559.118 1180.61L97.7068 943.387C61.7145 924.883 39.0883 887.809 39.0883 847.338V393.662C39.0883 353.191 61.7145 316.117 97.7068 297.613L559.118 60.3884Z" fill="url(#paint0_linear_601_14)"/>
<path d="M573.729 70.9606C595.199 59.7417 620.801 59.7417 642.271 70.9607L1099.6 309.932C1124.02 322.693 1139.33 347.965 1139.33 375.518V838.482C1139.33 866.035 1124.02 891.307 1099.6 904.068L642.271 1143.04C620.801 1154.26 595.199 1154.26 573.729 1143.04L116.401 904.068C91.9804 891.307 76.6719 866.035 76.6719 838.482V375.518C76.6719 347.965 91.9804 322.693 116.401 309.932L573.729 70.9606Z" fill="white" stroke="url(#paint1_linear_601_14)" stroke-width="32"/>
<path fill-rule="evenodd" clip-rule="evenodd" d="M917.412 875.501C931.219 875.501 942.472 864.287 941.84 850.494C929.156 573.762 707.042 351.663 430.325 338.979C416.532 338.347 405.317 349.6 405.317 363.407V457.352C405.317 471.159 416.542 482.269 430.322 483.134C627.523 495.512 785.306 653.284 797.685 850.497C798.55 864.277 809.66 875.501 823.467 875.501H917.412Z" fill="black"/>
<path fill-rule="evenodd" clip-rule="evenodd" d="M720.833 875.501C734.64 875.501 745.928 864.269 744.929 850.498C732.727 682.364 598.443 548.091 430.32 535.889C416.549 534.89 405.317 546.178 405.317 559.985V653.925C405.317 667.732 416.568 678.758 430.265 680.493C518.879 691.717 589.101 761.936 600.325 850.553C602.06 864.25 613.086 875.501 626.894 875.501H720.833Z" fill="black"/>
<path fill-rule="evenodd" clip-rule="evenodd" d="M524.257 875.502C538.064 875.502 549.484 864.218 547.113 850.615C536.733 791.063 489.751 744.084 430.204 733.704C416.602 731.333 405.317 742.753 405.317 756.56V850.502C405.317 864.309 416.51 875.502 430.317 875.502H524.257Z" fill="black"/>
<rect x="273.729" y="338.308" width="86.0738" height="144.042" rx="25" fill="#D22D2B"/>
<rect x="273.729" y="535.048" width="86.0738" height="144.042" rx="25" fill="#FCAA2D"/>
<rect x="273.729" y="731.788" width="86.0738" height="143.456" rx="25" fill="#13A24A"/>
</g>
<defs>
<linearGradient id="paint0_linear_601_14" x1="1382.15" y1="1080.12" x2="1382.15" y2="620.5" gradientUnits="userSpaceOnUse">
<stop stop-color="#13A24A"/>
<stop offset="1" stop-color="#13A24A" stop-opacity="0"/>
</linearGradient>
<linearGradient id="paint1_linear_601_14" x1="608" y1="150.629" x2="608" y2="930.47" gradientUnits="userSpaceOnUse">
<stop stop-color="#D22D2B"/>
<stop offset="1" stop-color="#FCAA2D"/>
</linearGradient>
<clipPath id="clip0_601_14">
<rect width="3779" height="1214" fill="white"/>
</clipPath>
</defs>
</svg>
